<svg xmlns="http://www.w3.org/2000/svg" xmlns:xlink="http://www.w3.org/1999/xlink" id="Layer_1" x="0" y="0" version="1.1" viewBox="0 0 1000 400" xml:space="preserve" style="enable-background:new 0 0 1000 400"><style type="text/css">.st0{fill:#fff}.st1,.st2{fill:none;stroke-linecap:round}.st1{stroke:#777;stroke-linejoin:round}.st2{stroke:#e23b9f;stroke-width:1.5;stroke-miterlimit:10}.st3{fill:#ceabc6;enable-background:new}.st4{fill:#e23b9f}.st5{fill:#3dcde0;enable-background:new}</style><rect width="1000" height="400" class="st0"/><title>curve-closer</title><polyline points="217.3 323.1 221.9 130.1 228 321 232.6 139.8 237.7 312.4 244.3 155.6 249.8 304.2 255.1 144.9 261.2 318.5 265.8 136.7 270.4 329.7 275.5 130.1 281.6 322.6 286.2 130.1 290.8 327.2 296.4 144.9 302.1 309.8 308.2 153.6 314.8 310.8 318.9 139.8 325 329.7 330.1 130.1 335.2 326.2 339.8 130.1 345 324.6 350.6 135.7 355.7 317 360.3 145.4 366.9 302.2 372 151 378.1 321 383.2 141.8 389.4 322.1 394 135.7 399.6 326.2 403.7 130.1 410.8 329.7 413.9 136.2 420.5 294.5 424.6 172.5 430.7 299.1 435.8 184.6 442.5 302.7 447.1 121.4 452.2 351.2 457.8 95.9 462.9 394.6 467.5 150 473.6 281.7 478.2 119.3 484.3 330.3 488.4 95.9 496.1 287.4 498.7 95.9 503.2 258.8 511.4 120.4 516.5 281.7 522.7 98.9 527.2 342.5 533.9 107.6 539 211.3 541.5 143.4 546.7 268 551.7 98.4 557.9 223.5 562.5 46.8 567.6 284.6 574.7 108.1 579.8 248.5 585 86.2 592.6 208.2 595.2 102.5 600.8 323.1 605.9 56 611 247.5 615.6 125 622.2 256.2 626.3 118.3 634 266.9 639.6 67.3 643.7 208.7 649.3 60.1 654.9 279.7 660 2.4 665.6 321.6 669.2 58.1 675.3 279.2 682 83.1 687.6 338.9 691.7 70.8 697.3 310.3 702.9 17.7 709 277.1 712.6 74.9 718.2 287.9 723.8 117.3 727.9 298.1 733.5 86.7 741.7 253.6 746.3 6.5 750.9 303.7 754.5 149 762.1 277.6 764.7 113.2 771.8 334.8 776.4 34.6 782.6 322.6 787.7 72.9 793.3 256.7" class="st1"/><line x1="115.3" x2="309.3" y1="154.6" y2="154.6" class="st2"/><line x1="115.3" x2="373.2" y1="150" y2="150" class="st2"/><circle cx="318.9" cy="139.8" r="2.5" class="st3"/><circle cx="447.1" cy="121.4" r="2.5" class="st3"/><circle cx="330.1" cy="130.1" r="2.5" class="st3"/><circle cx="467.5" cy="150" r="2.5" class="st3"/><circle cx="457.8" cy="95.9" r="2.5" class="st3"/><circle cx="339.8" cy="130.2" r="2.5" class="st3"/><circle cx="478.2" cy="119.3" r="2.5" class="st3"/><circle cx="360.3" cy="145.4" r="2.5" class="st3"/><circle cx="488.4" cy="95.9" r="2.5" class="st3"/><circle cx="308.2" cy="154.6" r="4.5" class="st4"/><circle cx="372" cy="150" r="4.5" class="st4"/><circle cx="350.6" cy="135.7" r="2.5" class="st3"/><circle cx="314.8" cy="310.9" r="2.5" class="st3"/><circle cx="325" cy="329.7" r="2.5" class="st3"/><circle cx="335.2" cy="326.2" r="2.5" class="st3"/><circle cx="355.7" cy="317" r="2.5" class="st3"/><circle cx="442.5" cy="302.7" r="2.5" class="st3"/><circle cx="473.6" cy="281.7" r="2.5" class="st3"/><circle cx="484.3" cy="330.2" r="2.5" class="st3"/><circle cx="496.1" cy="287.3" r="2.5" class="st3"/><circle cx="452.2" cy="351.2" r="2.5" class="st3"/><circle cx="462.9" cy="394.6" r="2.5" class="st3"/><circle cx="366.9" cy="302.2" r="2.5" class="st3"/><circle cx="344.9" cy="324.6" r="2.5" class="st3"/><line x1="435.8" x2="895.2" y1="184.6" y2="184.6" class="st2"/><line x1="498.7" x2="895.2" y1="95.9" y2="95.9" class="st2"/><polygon points="880.2 87.9 907.2 57.8 891.7 57.8 891.7 10.2 880.2 10.2 868.8 10.2 868.8 57.8 853.3 57.8" class="st5"/><polygon points="880.2 192.6 853.3 222.7 868.8 222.7 868.8 270.3 880.2 270.3 891.7 270.3 891.7 222.7 907.2 222.7" class="st5"/><polygon points="130.3 162.6 103.4 192.7 118.9 192.7 118.9 240.3 130.3 240.3 141.8 240.3 141.8 192.7 157.3 192.7" class="st5"/><polygon points="130.3 142 157.3 111.9 141.8 111.9 141.8 64.3 130.3 64.3 118.9 64.3 118.9 111.9 103.4 111.9" class="st5"/><circle cx="435.8" cy="184.6" r="4.5" class="st4"/><circle cx="498.7" cy="95.9" r="4.5" class="st4"/></svg>