<?xml version="1.0" encoding="utf-8"?>
<svg version="1.1" xmlns="http://www.w3.org/2000/svg" xmlns:xlink="http://www.w3.org/1999/xlink" x="0px" y="0px"
	 viewBox="0 0 1000 400" style="enable-background:new 0 0 1000 400;" xml:space="preserve">
<style type="text/css">
	.st0{fill:#FFFFFF;}
	.st1{fill:none;stroke:#000000;stroke-width:1.1;stroke-linecap:round;stroke-linejoin:round;}
	.st2{opacity:0.4;fill:#E23B9F;enable-background:new    ;}
	.st3{fill:#E23B9F;}
	.st4{fill:none;stroke:#E23B9F;stroke-width:0.75;stroke-miterlimit:10;}
	.st5{opacity:0.5;fill:#3DCDE0;enable-background:new    ;}
</style>
<title>curve-closer</title>
<rect x="50" class="st0" width="900" height="400"/>
<polyline class="st1" points="132.1,323.1 136.7,130.1 142.8,321 147.4,139.8 152.5,312.4 159.1,155.6 164.6,304.2 169.9,144.9 
	176,318.5 180.6,136.7 185.2,329.7 190.3,130.1 196.4,322.6 201,130.1 205.6,327.2 211.2,144.9 216.9,309.8 223,153.6 229.6,310.8 
	233.7,139.8 239.8,329.7 244.9,130.1 250,326.2 254.6,130.1 259.8,324.6 265.4,135.7 270.5,317 275.1,145.4 281.7,302.2 286.8,151 
	292.9,321 298,141.8 304.2,322.1 308.8,135.7 314.4,326.2 318.5,130.1 325.6,329.7 328.7,136.2 335.3,294.5 339.4,172.5 
	345.5,299.1 350.6,184.6 357.3,302.7 361.9,121.4 367,351.2 372.6,95.9 377.7,394.6 382.3,150 388.4,281.7 393,119.3 399.1,330.3 
	403.2,95.9 410.9,287.4 413.5,95.9 418,258.8 426.2,120.4 431.3,281.7 437.5,98.9 442,342.5 448.7,107.6 453.8,211.3 456.3,143.4 
	461.5,268 466.5,98.4 472.7,223.5 477.3,46.8 482.4,284.6 489.5,108.1 494.6,248.5 499.8,86.2 507.4,208.2 510,102.5 515.6,323.1 
	520.7,56 525.8,247.5 530.4,125 537,256.2 541.1,118.3 548.8,266.9 554.4,67.3 558.5,208.7 564.1,60.1 569.7,279.7 574.8,2.4 
	580.4,321.6 584,58.1 590.1,279.2 596.8,83.1 602.4,338.9 606.5,70.8 612.1,310.3 617.7,17.7 623.8,277.1 627.4,74.9 633,287.9 
	638.6,117.3 642.7,298.1 648.3,86.7 656.5,253.6 661.1,6.5 665.7,303.7 669.3,149 676.9,277.6 679.5,113.2 686.6,334.8 691.2,34.6 
	697.4,322.6 702.5,72.9 708.1,256.7 712.2,82.1 719.3,291.4 724.4,140.3 730.5,289.9 735.2,57 740.8,294.5 745.4,26.9 750,361.9 
	756.1,88.2 760.7,286.3 765.8,126 771.4,281.7 778.5,133.6 783.2,281.7 788.8,138.3 793.9,262.8 797.5,137.2 804.1,282.8 
	809.7,153.6 814.8,323.6 818.9,93.8 824.5,298.6 830.1,115.3 835.2,300.6 840.3,144.4 846.5,281.2 849.5,125 856.7,285.8 
	861.8,121.4 867.9,321 "/>
<circle class="st2" cx="233.7" cy="139.8" r="3"/>
<circle class="st2" cx="361.9" cy="121.4" r="3"/>
<circle class="st2" cx="244.9" cy="130.1" r="3"/>
<circle class="st2" cx="382.3" cy="150" r="3"/>
<circle class="st2" cx="372.6" cy="95.9" r="3"/>
<ellipse transform="matrix(0.1602 -0.9871 0.9871 0.1602 85.4114 360.6291)" class="st2" cx="254.6" cy="130.1" rx="3" ry="3"/>
<circle class="st2" cx="393" cy="119.3" r="3"/>
<circle class="st2" cx="275.1" cy="145.4" r="3"/>
<circle class="st2" cx="403.2" cy="95.9" r="3"/>
<circle class="st3" cx="223" cy="153.6" r="3"/>
<circle class="st3" cx="286.8" cy="151" r="3"/>
<circle class="st3" cx="350.6" cy="184.6" r="3"/>
<circle class="st3" cx="413.5" cy="95.9" r="3"/>
<circle class="st2" cx="265.4" cy="135.7" r="3"/>
<circle class="st2" cx="229.6" cy="310.9" r="3"/>
<circle class="st2" cx="239.8" cy="329.7" r="3"/>
<circle class="st2" cx="250" cy="326.2" r="3"/>
<circle class="st2" cx="270.5" cy="317" r="3"/>
<circle class="st2" cx="357.3" cy="302.7" r="3"/>
<circle class="st2" cx="388.4" cy="281.7" r="3"/>
<circle class="st2" cx="399.1" cy="330.2" r="3"/>
<circle class="st2" cx="410.9" cy="287.3" r="3"/>
<circle class="st2" cx="367" cy="351.2" r="3"/>
<circle class="st2" cx="377.7" cy="394.6" r="3"/>
<circle class="st2" cx="281.7" cy="302.2" r="3"/>
<circle class="st2" cx="259.7" cy="324.6" r="3"/>
<line class="st4" x1="142.4" y1="153.6" x2="367.4" y2="153.6"/>
<line class="st4" x1="269.6" y1="184.6" x2="494.5" y2="184.6"/>
<line class="st4" x1="269.6" y1="95.9" x2="494.5" y2="95.9"/>
<line class="st4" x1="142.4" y1="151" x2="367.4" y2="151"/>
<polygon class="st5" points="150.9,148 159.4,138.6 154.5,138.6 154.5,123.6 150.9,123.6 147.3,123.6 147.3,138.6 142.4,138.6 "/>
<polygon class="st5" points="486,92.9 494.5,83.4 489.6,83.4 489.6,68.4 486,68.4 482.4,68.4 482.4,83.4 477.5,83.4 "/>
<polygon class="st5" points="486,187.6 494.5,197 489.6,197 489.6,212 486,212 482.4,212 482.4,197 477.5,197 "/>
<polygon class="st5" points="150.9,156.6 159.4,166 154.5,166 154.5,181 150.9,181 147.3,181 147.3,166 142.4,166 "/>
<g>
	<circle cx="52.1" cy="198.5" r="2.1"/>
	<circle cx="73.5" cy="198.5" r="2.1"/>
	<circle cx="95" cy="198.5" r="2.1"/>
</g>
<g>
	<circle cx="905" cy="198.5" r="2.1"/>
	<circle cx="926.5" cy="198.5" r="2.1"/>
	<circle cx="947.9" cy="198.5" r="2.1"/>
</g>
</svg>
